<svg xmlns="http://www.w3.org/2000/svg" width="66" height="28" viewBox="0 0 66 28">
  <g id="Group_53" data-name="Group 53" transform="translate(-695 -2056)">
    <text id="Pay" transform="translate(722 2077)" fill="#538fff" font-size="24" font-family="SeoulNamsanEB, SeoulNamsan EB"><tspan x="0" y="0">Pay</tspan></text>
    <g id="SRPay_Logo" data-name="SRPay Logo" transform="translate(695 2056.048)">
      <ellipse id="Ellipse_9" data-name="Ellipse 9" cx="2.657" cy="2.369" rx="2.657" ry="2.369" transform="matrix(0.866, -0.5, 0.5, 0.866, 11.96, 2.657)" fill="#538fff"/>
      <g id="Group_31" data-name="Group 31" transform="translate(0.786 7.762)">
        <path id="Path_999" data-name="Path 999" d="M226.04,369.127c3.069-.561,5.507-.1,6.416,1.469,1.58,2.736-2.084,7.809-8.183,11.334a27.384,27.384,0,0,1-3.518,1.716c-.526.209-1.555.561-1.555.561s1.093.076,1.691.048a20.7,20.7,0,0,0,8.918-2.92c6.1-3.522,9.634-8.823,7.892-11.838C236.2,366.9,231.275,366.841,226.04,369.127Z" transform="translate(-219.2 -367.477)" fill="#538fff"/>
      </g>
      <g id="Group_32" data-name="Group 32" transform="translate(0 0.107)">
        <path id="Path_1000" data-name="Path 1000" d="M198.479,135.889c-1.324-2.575,1.21-6.479,5.659-8.725a14.374,14.374,0,0,1,4.3-1.4,15.3,15.3,0,0,0-7.163,1.821c-4.991,2.543-7.917,6.793-6.543,9.494,1.311,2.571,6.042,2.812,10.8.64C202.3,138.442,199.463,137.805,198.479,135.889Z" transform="translate(-194.39 -125.757)" fill="#538fff"/>
      </g>
    </g>
  </g>
</svg>
